<svg width="35" height="35" viewBox="0 0 35 35" fill="none" xmlns="http://www.w3.org/2000/svg">
<path d="M31.0511 8.75L29.025 21.0377C28.9454 21.5207 28.5278 21.875 28.0383 21.875H9.88211C9.39262 21.875 8.97507 21.5207 8.89544 21.0377L7.00743 9.58731C6.92779 9.10434 6.51024 8.75 6.02075 8.75H2.91663" stroke="#1E1E1E" stroke-width="2" stroke-linecap="round" stroke-linejoin="round"/>
<path fill-rule="evenodd" clip-rule="evenodd" d="M11.6667 29.1667C12.4721 29.1667 13.125 28.5137 13.125 27.7083C13.125 26.9029 12.4721 26.25 11.6667 26.25C10.8613 26.25 10.2083 26.9029 10.2083 27.7083C10.2083 28.5137 10.8613 29.1667 11.6667 29.1667Z" stroke="#1E1E1E" stroke-width="2"/>
<path fill-rule="evenodd" clip-rule="evenodd" d="M26.25 29.1667C27.0554 29.1667 27.7083 28.5137 27.7083 27.7083C27.7083 26.9029 27.0554 26.25 26.25 26.25C25.4446 26.25 24.7917 26.9029 24.7917 27.7083C24.7917 28.5137 25.4446 29.1667 26.25 29.1667Z" stroke="#1E1E1E" stroke-width="2"/>
<path d="M23.3333 11.6666H14.5833" stroke="#1E1E1E" stroke-width="2" stroke-linecap="round"/>
<path d="M18.9583 7.29163V16.0416" stroke="#1E1E1E" stroke-width="2" stroke-linecap="round"/>
</svg>
